<svg width="32.000000" height="32.000000" viewBox="0 0 32 32" fill="none" xmlns="http://www.w3.org/2000/svg" xmlns:xlink="http://www.w3.org/1999/xlink">
	<desc>
			Created with Pixso.
	</desc>
	<defs/>
	<path id="shape" d="M3.05 15.2L19.72 8.47C21.37 7.77 26.95 5.53 26.95 5.53C26.95 5.53 29.53 4.55 29.32 6.93C29.24 7.91 28.67 11.35 28.1 15.06L26.31 26.06C26.31 26.06 26.17 27.67 24.95 27.96C23.73 28.24 21.73 26.97 21.37 26.69C21.08 26.48 16 23.33 14.14 21.79C13.64 21.37 13.07 20.53 14.21 19.54C16.79 17.23 19.87 14.36 21.73 12.54C22.58 11.7 23.44 9.73 19.87 12.12L9.77 18.77C9.77 18.77 8.63 19.48 6.48 18.84C4.33 18.21 1.83 17.37 1.83 17.37C1.83 17.37 0.11 16.32 3.04 15.2L3.05 15.2Z" fill="#FFFFFF" fill-opacity="1.000000" fill-rule="nonzero"/>
</svg>
