<svg width="32.000000" height="32.000000" viewBox="0 0 32 32" fill="none" xmlns="http://www.w3.org/2000/svg" xmlns:xlink="http://www.w3.org/1999/xlink">
	<desc>
			Created with Pixso.
	</desc>
	<defs/>
	<path id="shape" d="M17.32 25.18C7.69 25.18 2.2 18.59 1.98 7.61L6.82 7.61C6.98 15.66 10.52 19.07 13.34 19.77L13.34 7.61L17.89 7.61L17.89 14.55C20.66 14.25 23.59 11.08 24.57 7.59L29.11 7.59C28.74 9.4 28 11.11 26.94 12.62C25.88 14.13 24.52 15.4 22.94 16.36C24.7 17.24 26.25 18.48 27.5 20C28.74 21.51 29.65 23.28 30.16 25.18L25.16 25.18C24.09 21.84 21.42 19.25 17.89 18.9L17.89 25.18L17.34 25.18L17.32 25.18Z" fill="#FFFFFF" fill-opacity="1.000000" fill-rule="nonzero"/>
</svg>
